{"title":"No Love Lost (2010) [BluRay 1080px264]","uid":5436049,"size":5366396679,"categoryP":"porn","categoryS":"hd___movies","magnet":"?xt=urn:btih:4bf60ae9f186923c71d49cc182225aa5a8a8694a&amp;dn=No+Love+Lost+%282010%29+%5BBluRay+1080px264%5D&amp;tr=udp%3A%2F%2Ftracker.openbittorrent.com%3A80&amp;tr=udp%3A%2F%2Fopen.demonii.com%3A1337&amp;tr=udp%3A%2F%2Ftracker.coppersurfer.tk%3A6969&amp;tr=udp%3A%2F%2Fexodus.desync.com%3A6969","seeders":0,"leechers":1,"uploader":"webchella","files":1,"time":1268761475,"description":"No Love Lost (2010) [BluRay 1080px264]\n &lt;a href=&quot;\nhttp://www.imagengratis.org/images/noltgwg9e.jpg&quot; rel=&quot;nofollow&quot; target=&quot;_NEW&quot;&gt;\nhttp://www.imagengratis.org/images/noltgwg9e.jpg&lt;/a&gt; &lt;a href=&quot;\nhttp://www.adultdvdemart.com/-/adult_dvd_product_info/filmid=DIPL00283.html/-09B32B6C-3596-4EE2-9BBD-1824D70E2572&quot; rel=&quot;nofollow&quot; target=&quot;_NEW&quot;&gt;\nhttp://www.adultdvdemart.com/-/adult_dvd_product_info/filmid=DIPL00283.html/-09B32B6C-3596-4EE2-9BBD-1824D70E2572&lt;/a&gt; &lt;a href=&quot;\nhttp://www.jadedvideo.com/Digital_Playground/No_Love_Lost_DVD.5-55651.html&quot; rel=&quot;nofollow&quot; target=&quot;_NEW&quot;&gt;\nhttp://www.jadedvideo.com/Digital_Playground/No_Love_Lost_DVD.5-55651.html&lt;/a&gt;\n\nStudio  Digital Playground \nRelease Date  Jan 06, 2010 \nCategory  Feature, HD - Shot In High Def, Blu-ray \nDirector  Robby D \nStarring  Alexis Texas, Kristina Rose, Charles Dera, Sadie West, Raven Alexis, Kerry-Louise, James Deen, Mick Blue, Scott Nails \n\nRaven Alexis arrives in the land of opportunity to escape from an abusive lover. Her innocence and girl-next-door looks are only a disguise as she quickly loses her inhibitions. Alexis gives Charles a quick cock-teasing before letting him ...    Full Descriptionthrust deep inside her. Raven holds out until the third scene, when she bares her clean snatch for Mick to please. Charles gives Sadie a finger-fucking for the books before returning the favor with her deep-throating abilities. Packed with generous helpings of pussy licking, blow jobs and facials; Kristina Rose's final anal scene provides pleasure that lingers for hours. It's evident that Raven will have no problems moving on from an abusive lover to provide Digital Playground viewers the pleasure they yearn for.\n\n=====================================\n&lt;&lt;&lt;&lt;&lt;&lt;&lt;&lt;&lt;&lt;&lt;&lt;&lt;&lt;&lt;&lt;&lt;&lt;&gt;&gt;&gt;&gt;&gt;&gt;&gt;&gt;&gt;&gt;&gt;&gt;&gt;&gt;&gt;&gt;&gt;&gt;&gt;&gt;\n=====================================\n\nFormat : Matroska\nFile size : 5.00 GiB\nDuration : 1h 37mn\nOverall bit rate : 7 309 Kbps\nEncoded date : UTC 2010-02-27 10:44:33\nWriting application : mkvmerge v3.2.0 ('Beginnings') gebaut am Feb 12 2010 16:46:17\nWriting library : libebml v0.7.9 + libmatroska v0.8.1\n\nVideo\nID : 1\nFormat : AVC\nFormat/Info : Advanced Video Codec\nFormat profile : &lt;a class=&quot;__cf_email__&quot; href=&quot;/cdn-cgi/l/email-protection&quot; data-cfemail=&quot;f2ba9b959ab2bec6dcc3&quot;&gt;[email&amp;#160;protected]&lt;/a&gt;&lt;script cf-hash='f9e31' type=&quot;text/javascript&quot;&gt;\n/* &lt;![CDATA[ */!function(){try{var t=&quot;currentScript&quot;in document?document.currentScript:function(){for(var t=document.getElementsByTagName(&quot;script&quot;),e=t.length;e--;)if(t[e].getAttribute(&quot;cf-hash&quot;))return t[e]}();if(t&amp;&amp;t.previousSibling){var e,r,n,i,c=t.previousSibling,a=c.getAttribute(&quot;data-cfemail&quot;);if(a){for(e=&quot;&quot;,r=parseInt(a.substr(0,2),16),n=2;a.length-n;n+=2)i=parseInt(a.substr(n,2),16)^r,e+=String.fromCharCode(i);e=document.createTextNode(e),c.parentNode.replaceChild(e,c)}}}catch(u){}}();/* ]]&gt; */&lt;/script&gt;\nFormat settings, CABAC : Yes\nFormat settings, ReFrames : 4 frames\nMuxing mode : Container profile=&lt;a class=&quot;__cf_email__&quot; href=&quot;/cdn-cgi/l/email-protection&quot; data-cfemail=&quot;98cdf6f3f6f7eff6d8acb6a9&quot;&gt;[email&amp;#160;protected]&lt;/a&gt;&lt;script cf-hash='f9e31' type=&quot;text/javascript&quot;&gt;\n/* &lt;![CDATA[ */!function(){try{var t=&quot;currentScript&quot;in document?document.currentScript:function(){for(var t=document.getElementsByTagName(&quot;script&quot;),e=t.length;e--;)if(t[e].getAttribute(&quot;cf-hash&quot;))return t[e]}();if(t&amp;&amp;t.previousSibling){var e,r,n,i,c=t.previousSibling,a=c.getAttribute(&quot;data-cfemail&quot;);if(a){for(e=&quot;&quot;,r=parseInt(a.substr(0,2),16),n=2;a.length-n;n+=2)i=parseInt(a.substr(n,2),16)^r,e+=String.fromCharCode(i);e=document.createTextNode(e),c.parentNode.replaceChild(e,c)}}}catch(u){}}();/* ]]&gt; */&lt;/script&gt;\nCodec ID : V_MPEG4/ISO/AVC\nDuration : 1h 37mn\nBit rate : 6 716 Kbps\nWidth : 1 920 pixels\nHeight : 1 080 pixels\nDisplay aspect ratio : 16:9\nFrame rate : 23.976 fps\nResolution : 8 bits\nColorimetry : 4:2:0\nScan type : Progressive\nBits/(Pixel*Frame) : 0.135\nStream size : 4.59 GiB (92%)\nWriting library : x264 core 88 r1471 1144615\nLanguage : English\n\nAudio\nID : 2\nFormat : AC-3\nFormat/Info : Audio Coding 3\nCodec ID : A_AC3\nDuration : 1h 37mn\nBit rate mode : Constant\nBit rate : 448 Kbps\nChannel(s) : 6 channels\nChannel positions : Front: L C R, Surround: L R, LFE\nSampling rate : 48.0 KHz\nStream size : 314 MiB (6%)\nTitle : English\nLanguage : English\n\n\n","torrent":{"xt":"urn:btih:4bf60ae9f186923c71d49cc182225aa5a8a8694a","amp;dn":"No+Love+Lost+%282010%29+%5BBluRay+1080px264%5D","amp;tr":["udp%3A%2F%2Ftracker.openbittorrent.com%3A80","udp%3A%2F%2Fopen.demonii.com%3A1337","udp%3A%2F%2Ftracker.coppersurfer.tk%3A6969","udp%3A%2F%2Fexodus.desync.com%3A6969"],"infoHash":"4bf60ae9f186923c71d49cc182225aa5a8a8694a","infoHashBuffer":{"type":"Buffer","data":[75,246,10,233,241,134,146,60,113,212,156,193,130,34,90,165,168,168,105,74]},"announce":[],"urlList":[]}}